{
    "asset" : {
        "generator" : "Khronos glTF Blender I/O v1.1.46",
        "version" : "2.0"
    },
    "scene" : 0,
    "scenes" : [
        {
            "name" : "Scene",
            "nodes" : [
                8
            ]
        }
    ],
    "nodes" : [
        {
            "name" : "Head",
            "translation" : [
                0,
                6.75,
                0
            ]
        },
        {
            "name" : "Arm_Left",
            "rotation" : [
                1,
                0,
                -4.371138473402425e-08,
                0
            ],
            "scale" : [
                1,
                0.9999997615814209,
                1
            ],
            "translation" : [
                -3,
                5.75,
                0
            ]
        },
        {
            "name" : "Arm_Right",
            "rotation" : [
                1,
                0,
                -4.371138473402425e-08,
                0
            ],
            "scale" : [
                1,
                0.9999997615814209,
                1
            ],
            "translation" : [
                3,
                5.75,
                0
            ]
        },
        {
            "name" : "Leg_Right",
            "rotation" : [
                1,
                0,
                -4.371138473402425e-08,
                0
            ],
            "scale" : [
                1,
                0.9999997615814209,
                1
            ],
            "translation" : [
                1,
                0,
                0
            ]
        },
        {
            "name" : "Leg_Left",
            "rotation" : [
                1,
                0,
                -4.371138473402425e-08,
                0
            ],
            "scale" : [
                1,
                0.9999997615814209,
                1
            ],
            "translation" : [
                -1,
                0,
                0
            ]
        },
        {
            "name" : "Cape",
            "rotation" : [
                1,
                0,
                -4.371138828673793e-08,
                0
            ],
            "translation" : [
                1.2488968970103542e-08,
                6.75,
                1.2000000476837158
            ]
        },
        {
            "children" : [
                0,
                1,
                2,
                3,
                4,
                5
            ],
            "name" : "Body",
            "translation" : [
                -1.2488968970103542e-08,
                6.75,
                -4.341129056228965e-07
            ]
        },
        {
            "mesh" : 0,
            "name" : "Player",
            "skin" : 0
        },
        {
            "children" : [
                7,
                6
            ],
            "name" : "Armature"
        }
    ],
    "animations" : [
        {
            "channels" : [
                {
                    "sampler" : 0,
                    "target" : {
                        "node" : 6,
                        "path" : "translation"
                    }
                },
                {
                    "sampler" : 1,
                    "target" : {
                        "node" : 6,
                        "path" : "rotation"
                    }
                },
                {
                    "sampler" : 2,
                    "target" : {
                        "node" : 6,
                        "path" : "scale"
                    }
                },
                {
                    "sampler" : 3,
                    "target" : {
                        "node" : 0,
                        "path" : "translation"
                    }
                },
                {
                    "sampler" : 4,
                    "target" : {
                        "node" : 0,
                        "path" : "rotation"
                    }
                },
                {
                    "sampler" : 5,
                    "target" : {
                        "node" : 0,
                        "path" : "scale"
                    }
                },
                {
                    "sampler" : 6,
                    "target" : {
                        "node" : 1,
                        "path" : "translation"
                    }
                },
                {
                    "sampler" : 7,
                    "target" : {
                        "node" : 1,
                        "path" : "rotation"
                    }
                },
                {
                    "sampler" : 8,
                    "target" : {
                        "node" : 1,
                        "path" : "scale"
                    }
                },
                {
                    "sampler" : 9,
                    "target" : {
                        "node" : 2,
                        "path" : "translation"
                    }
                },
                {
                    "sampler" : 10,
                    "target" : {
                        "node" : 2,
                        "path" : "rotation"
                    }
                },
                {
                    "sampler" : 11,
                    "target" : {
                        "node" : 2,
                        "path" : "scale"
                    }
                },
                {
                    "sampler" : 12,
                    "target" : {
                        "node" : 3,
                        "path" : "translation"
                    }
                },
                {
                    "sampler" : 13,
                    "target" : {
                        "node" : 3,
                        "path" : "rotation"
                    }
                },
                {
                    "sampler" : 14,
                    "target" : {
                        "node" : 3,
                        "path" : "scale"
                    }
                },
                {
                    "sampler" : 15,
                    "target" : {
                        "node" : 4,
                        "path" : "translation"
                    }
                },
                {
                    "sampler" : 16,
                    "target" : {
                        "node" : 4,
                        "path" : "rotation"
                    }
                },
                {
                    "sampler" : 17,
                    "target" : {
                        "node" : 4,
                        "path" : "scale"
                    }
                },
                {
                    "sampler" : 18,
                    "target" : {
                        "node" : 5,
                        "path" : "translation"
                    }
                },
                {
                    "sampler" : 19,
                    "target" : {
                        "node" : 5,
                        "path" : "rotation"
                    }
                },
                {
                    "sampler" : 20,
                    "target" : {
                        "node" : 5,
                        "path" : "scale"
                    }
                }
            ],
            "name" : "ArmatureAction.003",
            "samplers" : [
                {
                    "input" : 19,
                    "interpolation" : "LINEAR",
                    "output" : 20
                },
                {
                    "input" : 19,
                    "interpolation" : "LINEAR",
                    "output" : 21
                },
                {
                    "input" : 19,
                    "interpolation" : "LINEAR",
                    "output" : 22
                },
                {
                    "input" : 19,
                    "interpolation" : "LINEAR",
                    "output" : 23
                },
                {
                    "input" : 19,
                    "interpolation" : "LINEAR",
                    "output" : 24
                },
                {
                    "input" : 19,
                    "interpolation" : "LINEAR",
                    "output" : 25
                },
                {
                    "input" : 19,
                    "interpolation" : "LINEAR",
                    "output" : 26
                },
                {
                    "input" : 19,
                    "interpolation" : "LINEAR",
                    "output" : 27
                },
                {
                    "input" : 19,
                    "interpolation" : "LINEAR",
                    "output" : 28
                },
                {
                    "input" : 19,
                    "interpolation" : "LINEAR",
                    "output" : 29
                },
                {
                    "input" : 19,
                    "interpolation" : "LINEAR",
                    "output" : 30
                },
                {
                    "input" : 19,
                    "interpolation" : "LINEAR",
                    "output" : 31
                },
                {
                    "input" : 19,
                    "interpolation" : "LINEAR",
                    "output" : 32
                },
                {
                    "input" : 19,
                    "interpolation" : "LINEAR",
                    "output" : 33
                },
                {
                    "input" : 19,
                    "interpolation" : "LINEAR",
                    "output" : 34
                },
                {
                    "input" : 19,
                    "interpolation" : "LINEAR",
                    "output" : 35
                },
                {
                    "input" : 19,
                    "interpolation" : "LINEAR",
                    "output" : 36
                },
                {
                    "input" : 19,
                    "interpolation" : "LINEAR",
                    "output" : 37
                },
                {
                    "input" : 19,
                    "interpolation" : "LINEAR",
                    "output" : 38
                },
                {
                    "input" : 19,
                    "interpolation" : "LINEAR",
                    "output" : 39
                },
                {
                    "input" : 19,
                    "interpolation" : "LINEAR",
                    "output" : 40
                }
            ]
        }
    ],
    "materials" : [
        {
            "doubleSided" : true,
            "name" : "Character",
            "pbrMetallicRoughness" : {}
        },
        {
            "doubleSided" : true,
            "name" : "Armor",
            "pbrMetallicRoughness" : {}
        },
        {
            "doubleSided" : true,
            "name" : "Wielditem",
            "pbrMetallicRoughness" : {}
        }
    ],
    "meshes" : [
        {
            "name" : "Cube",
            "primitives" : [
                {
                    "attributes" : {
                        "POSITION" : 0,
                        "NORMAL" : 1,
                        "TEXCOORD_0" : 2,
                        "JOINTS_0" : 3,
                        "WEIGHTS_0" : 4
                    },
                    "indices" : 5,
                    "material" : 0
                },
                {
                    "attributes" : {
                        "POSITION" : 6,
                        "NORMAL" : 7,
                        "TEXCOORD_0" : 8,
                        "JOINTS_0" : 9,
                        "WEIGHTS_0" : 10
                    },
                    "indices" : 11,
                    "material" : 1
                },
                {
                    "attributes" : {
                        "POSITION" : 12,
                        "NORMAL" : 13,
                        "TEXCOORD_0" : 14,
                        "JOINTS_0" : 15,
                        "WEIGHTS_0" : 16
                    },
                    "indices" : 17,
                    "material" : 2
                }
            ]
        }
    ],
    "skins" : [
        {
            "inverseBindMatrices" : 18,
            "joints" : [
                6,
                0,
                1,
                2,
                3,
                4,
                5
            ],
            "name" : "Armature"
        }
    ],
    "accessors" : [
        {
            "bufferView" : 0,
            "componentType" : 5126,
            "count" : 192,
            "max" : [
                4,
                17.70298957824707,
                2.1999998092651367
            ],
            "min" : [
                -4,
                0,
                -2.1999998092651367
            ],
            "type" : "VEC3"
        },
        {
            "bufferView" : 1,
            "componentType" : 5126,
            "count" : 192,
            "type" : "VEC3"
        },
        {
            "bufferView" : 2,
            "componentType" : 5126,
            "count" : 192,
            "type" : "VEC2"
        },
        {
            "bufferView" : 3,
            "componentType" : 5123,
            "count" : 192,
            "type" : "VEC4"
        },
        {
            "bufferView" : 4,
            "componentType" : 5126,
            "count" : 192,
            "type" : "VEC4"
        },
        {
            "bufferView" : 5,
            "componentType" : 5123,
            "count" : 288,
            "type" : "SCALAR"
        },
        {
            "bufferView" : 6,
            "componentType" : 5126,
            "count" : 440,
            "max" : [
                4.299999713897705,
                17.799999237060547,
                2.299999713897705
            ],
            "min" : [
                -5.844038009643555,
                -0.20000076293945312,
                -4.531936168670654
            ],
            "type" : "VEC3"
        },
        {
            "bufferView" : 7,
            "componentType" : 5126,
            "count" : 440,
            "type" : "VEC3"
        },
        {
            "bufferView" : 8,
            "componentType" : 5126,
            "count" : 440,
            "type" : "VEC2"
        },
        {
            "bufferView" : 9,
            "componentType" : 5123,
            "count" : 440,
            "type" : "VEC4"
        },
        {
            "bufferView" : 10,
            "componentType" : 5126,
            "count" : 440,
            "type" : "VEC4"
        },
        {
            "bufferView" : 11,
            "componentType" : 5123,
            "count" : 660,
            "type" : "SCALAR"
        },
        {
            "bufferView" : 12,
            "componentType" : 5126,
            "count" : 248,
            "max" : [
                3.1428329944610596,
                12.00136947631836,
                1.7682400941848755
            ],
            "min" : [
                2.8571670055389404,
                3.741215944290161,
                -6.501951217651367
            ],
            "type" : "VEC3"
        },
        {
            "bufferView" : 13,
            "componentType" : 5126,
            "count" : 248,
            "type" : "VEC3"
        },
        {
            "bufferView" : 14,
            "componentType" : 5126,
            "count" : 248,
            "type" : "VEC2"
        },
        {
            "bufferView" : 15,
            "componentType" : 5123,
            "count" : 248,
            "type" : "VEC4"
        },
        {
            "bufferView" : 16,
            "componentType" : 5126,
            "count" : 248,
            "type" : "VEC4"
        },
        {
            "bufferView" : 17,
            "componentType" : 5123,
            "count" : 372,
            "type" : "SCALAR"
        },
        {
            "bufferView" : 18,
            "componentType" : 5126,
            "count" : 7,
            "type" : "MAT4"
        },
        {
            "bufferView" : 19,
            "componentType" : 5126,
            "count" : 241,
            "max" : [
                8
            ],
            "min" : [
                0
            ],
            "type" : "SCALAR"
        },
        {
            "bufferView" : 20,
            "componentType" : 5126,
            "count" : 241,
            "type" : "VEC3"
        },
        {
            "bufferView" : 21,
            "componentType" : 5126,
            "count" : 241,
            "type" : "VEC4"
        },
        {
            "bufferView" : 22,
            "componentType" : 5126,
            "count" : 241,
            "type" : "VEC3"
        },
        {
            "bufferView" : 23,
            "componentType" : 5126,
            "count" : 241,
            "type" : "VEC3"
        },
        {
            "bufferView" : 24,
            "componentType" : 5126,
            "count" : 241,
            "type" : "VEC4"
        },
        {
            "bufferView" : 25,
            "componentType" : 5126,
            "count" : 241,
            "type" : "VEC3"
        },
        {
            "bufferView" : 26,
            "componentType" : 5126,
            "count" : 241,
            "type" : "VEC3"
        },
        {
            "bufferView" : 27,
            "componentType" : 5126,
            "count" : 241,
            "type" : "VEC4"
        },
        {
            "bufferView" : 28,
            "componentType" : 5126,
            "count" : 241,
            "type" : "VEC3"
        },
        {
            "bufferView" : 29,
            "componentType" : 5126,
            "count" : 241,
            "type" : "VEC3"
        },
        {
            "bufferView" : 30,
            "componentType" : 5126,
            "count" : 241,
            "type" : "VEC4"
        },
        {
            "bufferView" : 31,
            "componentType" : 5126,
            "count" : 241,
            "type" : "VEC3"
        },
        {
            "bufferView" : 32,
            "componentType" : 5126,
            "count" : 241,
            "type" : "VEC3"
        },
        {
            "bufferView" : 33,
            "componentType" : 5126,
            "count" : 241,
            "type" : "VEC4"
        },
        {
            "bufferView" : 34,
            "componentType" : 5126,
            "count" : 241,
            "type" : "VEC3"
        },
        {
            "bufferView" : 35,
            "componentType" : 5126,
            "count" : 241,
            "type" : "VEC3"
        },
        {
            "bufferView" : 36,
            "componentType" : 5126,
            "count" : 241,
            "type" : "VEC4"
        },
        {
            "bufferView" : 37,
            "componentType" : 5126,
            "count" : 241,
            "type" : "VEC3"
        },
        {
            "bufferView" : 38,
            "componentType" : 5126,
            "count" : 241,
            "type" : "VEC3"
        },
        {
            "bufferView" : 39,
            "componentType" : 5126,
            "count" : 241,
            "type" : "VEC4"
        },
        {
            "bufferView" : 40,
            "componentType" : 5126,
            "count" : 241,
            "type" : "VEC3"
        }
    ],
    "bufferViews" : [
        {
            "buffer" : 0,
            "byteLength" : 2304,
            "byteOffset" : 0
        },
        {
            "buffer" : 0,
            "byteLength" : 2304,
            "byteOffset" : 2304
        },
        {
            "buffer" : 0,
            "byteLength" : 1536,
            "byteOffset" : 4608
        },
        {
            "buffer" : 0,
            "byteLength" : 1536,
            "byteOffset" : 6144
        },
        {
            "buffer" : 0,
            "byteLength" : 3072,
            "byteOffset" : 7680
        },
        {
            "buffer" : 0,
            "byteLength" : 576,
            "byteOffset" : 10752
        },
        {
            "buffer" : 0,
            "byteLength" : 5280,
            "byteOffset" : 11328
        },
        {
            "buffer" : 0,
            "byteLength" : 5280,
            "byteOffset" : 16608
        },
        {
            "buffer" : 0,
            "byteLength" : 3520,
            "byteOffset" : 21888
        },
        {
            "buffer" : 0,
            "byteLength" : 3520,
            "byteOffset" : 25408
        },
        {
            "buffer" : 0,
            "byteLength" : 7040,
            "byteOffset" : 28928
        },
        {
            "buffer" : 0,
            "byteLength" : 1320,
            "byteOffset" : 35968
        },
        {
            "buffer" : 0,
            "byteLength" : 2976,
            "byteOffset" : 37288
        },
        {
            "buffer" : 0,
            "byteLength" : 2976,
            "byteOffset" : 40264
        },
        {
            "buffer" : 0,
            "byteLength" : 1984,
            "byteOffset" : 43240
        },
        {
            "buffer" : 0,
            "byteLength" : 1984,
            "byteOffset" : 45224
        },
        {
            "buffer" : 0,
            "byteLength" : 3968,
            "byteOffset" : 47208
        },
        {
            "buffer" : 0,
            "byteLength" : 744,
            "byteOffset" : 51176
        },
        {
            "buffer" : 0,
            "byteLength" : 448,
            "byteOffset" : 51920
        },
        {
            "buffer" : 0,
            "byteLength" : 964,
            "byteOffset" : 52368
        },
        {
            "buffer" : 0,
            "byteLength" : 2892,
            "byteOffset" : 53332
        },
        {
            "buffer" : 0,
            "byteLength" : 3856,
            "byteOffset" : 56224
        },
        {
            "buffer" : 0,
            "byteLength" : 2892,
            "byteOffset" : 60080
        },
        {
            "buffer" : 0,
            "byteLength" : 2892,
            "byteOffset" : 62972
        },
        {
            "buffer" : 0,
            "byteLength" : 3856,
            "byteOffset" : 65864
        },
        {
            "buffer" : 0,
            "byteLength" : 2892,
            "byteOffset" : 69720
        },
        {
            "buffer" : 0,
            "byteLength" : 2892,
            "byteOffset" : 72612
        },
        {
            "buffer" : 0,
            "byteLength" : 3856,
            "byteOffset" : 75504
        },
        {
            "buffer" : 0,
            "byteLength" : 2892,
            "byteOffset" : 79360
        },
        {
            "buffer" : 0,
            "byteLength" : 2892,
            "byteOffset" : 82252
        },
        {
            "buffer" : 0,
            "byteLength" : 3856,
            "byteOffset" : 85144
        },
        {
            "buffer" : 0,
            "byteLength" : 2892,
            "byteOffset" : 89000
        },
        {
            "buffer" : 0,
            "byteLength" : 2892,
            "byteOffset" : 91892
        },
        {
            "buffer" : 0,
            "byteLength" : 3856,
            "byteOffset" : 94784
        },
        {
            "buffer" : 0,
            "byteLength" : 2892,
            "byteOffset" : 98640
        },
        {
            "buffer" : 0,
            "byteLength" : 2892,
            "byteOffset" : 101532
        },
        {
            "buffer" : 0,
            "byteLength" : 3856,
            "byteOffset" : 104424
        },
        {
            "buffer" : 0,
            "byteLength" : 2892,
            "byteOffset" : 108280
        },
        {
            "buffer" : 0,
            "byteLength" : 2892,
            "byteOffset" : 111172
        },
        {
            "buffer" : 0,
            "byteLength" : 3856,
            "byteOffset" : 114064
        },
        {
            "buffer" : 0,
            "byteLength" : 2892,
            "byteOffset" : 117920
        }
    ],
    "buffers" : [
        {
            "byteLength" : 120812,
            "uri" : "data:application/octet-stream;base64,"
        }
    ]
}
